<?xml version="1.0" encoding="UTF-8"?>
<svg id="Layer_1" xmlns="http://www.w3.org/2000/svg" version="1.1" viewBox="0 0 133.3 96.3">
  <!-- Generator: Adobe Illustrator 29.7.1, SVG Export Plug-In . SVG Version: 2.1.1 Build 8)  -->
  <defs>
    <style>
      .st0, .st1 {
        fill: #f37021;
      }

      .st2, .st3 {
        fill: #fff;
      }

      .st3, .st1 {
        fill-rule: evenodd;
      }

      .st4 {
        fill: #253370;
      }

      .st5 {
        fill: #10357f;
      }
    </style>
  </defs>
  <g>
    <path class="st4" d="M35.5,87.8c1.2,0,1.9.9,1.9,2s-.7,2-1.9,2-1.9-.9-1.9-2,.7-2,1.9-2ZM35.5,91.2c.8,0,1.1-.7,1.1-1.3s-.3-1.3-1.1-1.3-1.1.7-1.1,1.3.3,1.3,1.1,1.3Z"/>
    <path class="st4" d="M38.6,87.9h2.7v.7h-1.9v.9h1.6v.7h-1.6v1.6h-.9v-3.9h.1Z"/>
    <path class="st4" d="M42.3,87.9h2.7v.7h-1.9v.9h1.6v.7h-1.6v1.6h-.9v-3.9h.1Z"/>
    <path class="st4" d="M46.1,87.9h.9v3.9h-.9v-3.9Z"/>
    <path class="st4" d="M50.8,89.2c0-.4-.4-.7-.8-.7-.8,0-1.1.7-1.1,1.3s.3,1.3,1.1,1.3.8-.4.9-.9h.8c0,1-.8,1.6-1.7,1.6s-1.9-.9-1.9-2,.7-2,1.9-2,1.6.5,1.7,1.4h-.9Z"/>
    <path class="st4" d="M52.8,87.9h.9v3.9h-.9v-3.9Z"/>
    <path class="st4" d="M56,87.9h.9l1.5,3.9h-.9l-.3-.9h-1.5l-.3.9h-.9s1.5-3.9,1.5-3.9ZM55.9,90.3h1l-.5-1.4h0l-.5,1.4Z"/>
    <path class="st4" d="M59.2,87.9h.9v3.2h1.9v.7h-2.7v-3.9h-.1Z"/>
    <path class="st4" d="M65,87.9h.9v3.2h1.9v.7h-2.7v-3.9h-.1Z"/>
    <path class="st4" d="M68.7,87.9h.9v3.9h-.9v-3.9Z"/>
    <path class="st4" d="M73.5,89.2c0-.4-.4-.7-.8-.7-.8,0-1.1.7-1.1,1.3s.3,1.3,1.1,1.3.8-.4.9-.9h.8c0,1-.8,1.6-1.7,1.6s-1.9-.9-1.9-2,.7-2,1.9-2,1.6.5,1.7,1.4h-.9Z"/>
    <path class="st4" d="M75.5,87.9h2.9v.7h-2v.8h1.9v.7h-1.9v1h2.1v.7h-2.9v-3.9h0Z"/>
    <path class="st4" d="M79.5,87.9h.8l1.6,2.6h0v-2.6h.8v3.9h-.9l-1.6-2.6h0v2.6h-.8v-3.9h0Z"/>
    <path class="st4" d="M84.7,90.5c0,.5.4.7.9.7s.8,0,.8-.5-.6-.5-1.2-.6c-.6-.2-1.2-.4-1.2-1.1s.7-1.2,1.5-1.2,1.6.4,1.6,1.2h-.8c0-.5-.4-.6-.8-.6s-.6,0-.6.4.2.3,1.2.6c.3,0,1.2.2,1.2,1.1s-.6,1.2-1.6,1.2-1.7-.4-1.7-1.4h.8v.2Z"/>
    <path class="st4" d="M88.1,87.9h2.9v.7h-2v.8h1.9v.7h-1.9v1h2.1v.7h-2.9v-3.9h0Z"/>
    <path class="st4" d="M92.2,87.9h2.9v.7h-2v.8h1.9v.7h-1.9v1h2.1v.7h-2.9v-3.9h0Z"/>
  </g>
  <g>
    <path class="st2" d="M48.7,33.9h0c-.2-.7-1.1-1.3-2.5-1.7-3-7.8-10.6-13.3-19.4-13.3s-16.4,5.5-19.4,13.3c-1.4.4-2.3.9-2.5,1.6h0c-.5,1.9-.8,3.9-.8,5.9s.3,4,.8,5.8v.2c.3.6,1.2,1.2,2.5,1.5,3,7.8,10.6,13.3,19.4,13.3s16.4-5.5,19.4-13.3c1.3-.4,2.2-.9,2.5-1.5v-.2c.5-1.9.8-3.8.8-5.8s-.3-4-.8-5.9"/>
    <path class="st5" d="M49.5,33.6h0c-.3-1.1-1.6-1.7-2.7-2.1-.8-1.9-1.8-3.6-3-5.2-1.3-1.7-2.9-3.2-4.6-4.4-3.6-2.5-7.9-3.9-12.4-3.9s-8.7,1.3-12.4,3.9c-1.8,1.2-3.3,2.7-4.6,4.4-1.2,1.6-2.3,3.3-3,5.2-1.1.4-2.4,1-2.7,2h0c-.5,2-.8,4.1-.8,6.2s.3,4.1.8,6h0v.2h0c.4,1,1.6,1.6,2.7,2,.8,1.9,1.8,3.6,3,5.2,1.3,1.7,2.9,3.1,4.6,4.4,3.6,2.5,7.9,3.9,12.4,3.9s8.7-1.3,12.4-3.9c1.8-1.2,3.3-2.7,4.6-4.4,1.2-1.6,2.3-3.3,3-5.2,1.1-.3,2.3-.9,2.7-1.9h0v-.2h0c.5-2,.8-4,.8-6s-.3-4.1-.8-6.1M48.6,45.7c-.2.6-1.2,1.2-2.5,1.5-3,7.8-10.6,13.3-19.4,13.3s-16.4-5.5-19.4-13.3c-1.3-.3-2.2-.9-2.5-1.5v-.2c-.5-1.9-.8-3.8-.8-5.8s.3-4,.8-5.9h0c.2-.7,1.1-1.3,2.5-1.7,3-7.8,10.6-13.3,19.4-13.3s16.4,5.5,19.4,13.3c1.4.4,2.3.9,2.5,1.6h0c.5,1.9.8,3.9.8,5.9s-.3,4-.8,5.8v.2h0Z"/>
    <path class="st0" d="M8.5,32c3-7.1,10-12.1,18.2-12.1s15.2,5,18.2,12.1c-5.3-.9-11.5-1.4-18.2-1.4s-12.9.5-18.2,1.4M26.8,48.8c-6.7,0-12.9-.5-18.2-1.4,3,7.1,10,12.1,18.2,12.1s15.2-5,18.2-12.1c-5.3.9-11.5,1.4-18.2,1.4"/>
    <path class="st5" d="M17.2,37.1s-1.3-1-3-1-4.3.2-4.3,3.8,3.4,3.5,3.4,3.5c1.6,0,1.6-.4,1.6-.4v-1.7h-1.9v-2.3h5.7v6.4h-3.8v-.3s-1.1.6-2.9.6-6.3-.9-6.3-6.2,3.6-5.8,6.7-5.8,4.9,1.1,4.9,1.1v2.3h-.1ZM21.2,39v4.4c0,.4,0,2.3,3.6,2.3,0,0,1.2,0,2.9-.6v.3h3.8v-6.4h-3.8v4.5s-2.7.7-2.7-1v-3.5h-3.7M34.1,34.8v10.6h3.7v-10.6h-3.7M45.5,45.4v-4.2h1.7v-2.3h-1.7v-1.3c0-.8.9-.5.9-.5.6,0,1.2.5,1.2.5v-2.2s-1-.9-3.7-.9-2,1.5-2,1.5v2.9h-1.6v2.3h1.6v4.1h3.6"/>
  </g>
  <rect class="st5" x="63.4" y="5" width="1.3" height="69.5"/>
  <g>
    <path class="st1" d="M94.8,45.1c0-4-2.3-7.9-3.9-10.6-1.4-2.4-2.7-4.5-3.9-7.1-.3-.6-.7-1.6-.9-2.3h0c0-.3,0-.1,0-.3-.8.9-2.4,3.7-3.1,4.9-.9,1.6-1.9,3.6-2.6,5.4-1.4,3.5-3.3,9.1-1.9,13.2.7,2,2.1,3.5,3.5,4.5,1.5,1.1,3.8,2,6.2,1.5,1.4-.3,3-1.1,4-2.1,1.6-1.7,2.8-4.6,2.8-7.3"/>
    <path class="st3" d="M89.7,39.8v-1.5c0-.6,0-1,.6-.6.3.3,1.1,1.1,1.4,1.6.8,1.2,1.4,2.6,1.6,4.4.2,1.9,0,3.6-.7,5.2-.6,1.5-1.5,2.6-2.7,3.4-1.3.8-3.5,1-4.6,0-.5-.4-.8-1.4-.6-2.3.2-.7.6-1,1.5-1.5,3-1.7,3.6-5,3.4-8.6"/>
    <g>
      <g>
        <polygon class="st5" points="97.7 48.8 98.9 48.8 98.9 53.4 101.6 53.4 101.6 54.4 97.7 54.4 97.7 48.8"/>
        <rect class="st5" x="102.3" y="48.8" width="1.2" height="5.6"/>
        <polygon class="st5" points="104.6 48.8 106.4 48.8 107.7 52.7 107.7 52.7 109 48.8 110.7 48.8 110.7 54.4 109.5 54.4 109.5 50.4 109.5 50.4 108.1 54.4 107.2 54.4 105.8 50.5 105.8 50.5 105.8 54.4 104.6 54.4 104.6 48.8"/>
        <rect class="st5" x="111.8" y="48.8" width="1.2" height="5.6"/>
        <polygon class="st5" points="115.3 49.8 113.7 49.8 113.7 48.8 118.3 48.8 118.3 49.8 116.6 49.8 116.6 54.4 115.3 54.4 115.3 49.8"/>
        <polygon class="st5" points="118.9 48.8 123.1 48.8 123.1 49.8 120.1 49.8 120.1 51 122.9 51 122.9 52 120.1 52 120.1 53.4 123.2 53.4 123.2 54.4 118.9 54.4 118.9 48.8"/>
        <path class="st5" d="M124,48.8h2.4c1.5,0,2.5.9,2.5,2.8s-.8,2.8-2.5,2.8h-2.4v-5.6ZM125.2,53.4h1.1c.7,0,1.4-.4,1.4-1.7s-.4-1.9-1.6-1.9h-.9v3.5h0Z"/>
      </g>
      <g>
        <polygon class="st5" points="97.7 28.2 99.2 28.2 102.1 32.9 102.2 32.9 102.2 28.2 103.6 28.2 103.6 35.2 102.1 35.2 99.1 30.5 99.1 30.5 99.1 35.2 97.7 35.2 97.7 28.2"/>
        <polygon class="st5" points="105 28.2 110.2 28.2 110.2 29.5 106.5 29.5 106.5 31 109.9 31 109.9 32.2 106.5 32.2 106.5 33.9 110.3 33.9 110.3 35.2 105 35.2 105 28.2"/>
        <path class="st5" d="M111.4,28.2h3.2c1.8,0,2.4,1.1,2.4,2.3s-.7,2.3-2.4,2.3h-1.6v2.5h-1.6v-7.1h0ZM112.9,31.5h1.2c.7,0,1.4-.2,1.4-1.1s-.6-1.1-1.4-1.1h-1.2v2.1h0Z"/>
        <path class="st5" d="M119.2,28.2h1.6l2.6,7.1h-1.6l-.5-1.6h-2.6l-.6,1.6h-1.6l2.7-7.1h0ZM119,32.5h1.8l-.9-2.6h0l-.9,2.6h0Z"/>
        <polygon class="st5" points="124 28.2 125.5 28.2 125.5 33.9 129 33.9 129 35.2 124 35.2 124 28.2"/>
      </g>
      <g>
        <polygon class="st5" points="97.7 39.2 98.7 39.2 98.7 43.2 101.1 43.2 101.1 44.1 97.7 44.1 97.7 39.2"/>
        <path class="st5" d="M105.9,42.3c0,1.3-.8,2-2.1,2s-2.1-.6-2.1-2v-3.1h1.1v3.1c0,.5.1,1.1,1,1.1s1-.3,1-1.1v-3.1h1.1v3.1Z"/>
        <path class="st5" d="M106.9,39.2h2.3c.9,0,1.6.3,1.6,1.2s-.2.8-.7,1c.6.2.9.6.9,1.2,0,1-.8,1.4-1.7,1.4h-2.4v-4.9h0ZM107.9,41.2h1.1c.4,0,.7-.2.7-.6s-.4-.6-.7-.6h-1v1.2h-.1ZM107.9,43.3h1.2c.4,0,.8,0,.8-.6s-.3-.7-.8-.7h-1.2v1.4h0Z"/>
        <polygon class="st5" points="111.7 39.2 115.4 39.2 115.4 40.1 112.8 40.1 112.8 41.2 115.2 41.2 115.2 42 112.8 42 112.8 43.2 115.4 43.2 115.4 44.1 111.7 44.1 111.7 39.2"/>
        <path class="st5" d="M120.3,39.1c1.5,0,2.4,1.1,2.4,2.6s-.9,2.6-2.4,2.6-2.4-1.1-2.4-2.6.9-2.6,2.4-2.6M120.3,43.3c1,0,1.3-.8,1.3-1.6s-.4-1.7-1.3-1.7-1.3.8-1.3,1.7.4,1.6,1.3,1.6"/>
        <rect class="st5" x="123.5" y="39.2" width="1.1" height="4.9"/>
        <polygon class="st5" points="125.5 39.2 126.6 39.2 126.6 43.2 129 43.2 129 44.1 125.5 44.1 125.5 39.2"/>
      </g>
    </g>
  </g>
</svg>